<svg xmlns="http://www.w3.org/2000/svg" xmlns:xlink="http://www.w3.org/1999/xlink" width="500" zoomAndPan="magnify" viewBox="0 0 375 374.999991" height="500" preserveAspectRatio="xMidYMid meet" version="1.0"><defs><g/></defs><g fill="#000000" fill-opacity="1"><g transform="translate(25.010567, 201.749987)"><g><path d="M 29.246094 -44.3125 C 32.851562 -42.246094 33.679688 -37.519531 33.679688 -33.738281 L 33.679688 -10.398438 L 8.507812 -44.3125 C 5.671875 -44.3125 2.835938 -44.3125 0 -44.3125 L 1.0625 -42.894531 L 1.0625 -7.859375 C 1.0625 -4.84375 0.828125 -2.246094 0 0 L 7.800781 0 C 4.195312 -2.066406 3.367188 -6.792969 3.367188 -10.578125 L 3.367188 -39.765625 L 32.910156 0 L 35.984375 0 L 35.984375 -36.457031 C 35.984375 -39.46875 36.21875 -42.070312 37.046875 -44.3125 Z M 29.246094 -44.3125 "/></g></g></g><g fill="#000000" fill-opacity="1"><g transform="translate(67.012338, 201.749987)"><g><path d="M 26.351562 -7.207031 C 26.351562 -10.339844 26.351562 -17.015625 26.351562 -20.976562 C 26.351562 -28.125 20.855469 -28.953125 15.066406 -28.953125 C 9.808594 -28.953125 3.898438 -28.125 0 -27.238281 L 4.078125 -21.566406 C 7.445312 -24.34375 11.816406 -26.824219 16.308594 -26.882812 C 22.628906 -27 21.800781 -19.144531 15.953125 -17.667969 C 13.765625 -17.132812 11.402344 -17.605469 9.097656 -17.667969 C 3.722656 -17.785156 0 -14.359375 0 -8.863281 C 0 -3.074219 4.136719 0 8.804688 0 C 13.707031 0 19.085938 -3.425781 20.679688 -10.398438 L 20.679688 -7.800781 C 20.679688 -4.902344 20.738281 -2.539062 21.742188 0 L 27.414062 0 C 26.589844 -2.246094 26.351562 -4.253906 26.351562 -7.207031 Z M 10.988281 -3.132812 C 4.429688 -2.953125 3.132812 -13.886719 11.933594 -15.125 C 15.007812 -15.539062 19.144531 -15.65625 20.679688 -18.671875 C 20.148438 -13.351562 17.960938 -3.308594 10.988281 -3.132812 Z M 10.988281 -3.132812 "/></g></g></g><g fill="#000000" fill-opacity="1"><g transform="translate(99.385005, 201.749987)"><g><path d="M 0 -28.953125 C 0.828125 -26.765625 1.0625 -24.757812 1.0625 -21.742188 L 1.0625 -7.207031 C 1.0625 -4.253906 0.828125 -2.246094 0 0 C 2.601562 0 5.199219 0 7.800781 0 C 6.914062 -2.246094 6.734375 -4.253906 6.734375 -7.207031 L 6.734375 -21.683594 C 9.15625 -23.632812 12.171875 -25.644531 14.121094 -25.761719 C 16.898438 -25.9375 18.789062 -24.578125 18.789062 -20.382812 L 18.789062 -7.207031 C 18.789062 -4.253906 18.613281 -2.246094 17.726562 0 C 20.324219 0 22.925781 0 25.523438 0 C 24.699219 -2.246094 24.460938 -4.253906 24.460938 -7.207031 C 24.460938 -11.460938 24.460938 -17.074219 24.460938 -21.566406 C 24.460938 -21.625 24.460938 -21.625 24.460938 -21.683594 C 26.882812 -23.632812 29.898438 -25.644531 31.847656 -25.761719 C 34.625 -25.9375 36.515625 -24.578125 36.515625 -20.382812 L 36.515625 -7.207031 C 36.515625 -4.253906 36.335938 -2.246094 35.511719 0 C 38.109375 0 40.710938 0 43.25 0 C 42.421875 -2.246094 42.246094 -4.253906 42.246094 -7.207031 C 42.246094 -11.460938 42.246094 -17.074219 42.246094 -21.566406 C 42.246094 -26.46875 39.527344 -28.953125 34.683594 -28.953125 C 31.316406 -28.953125 27.472656 -26.351562 24.285156 -23.753906 C 23.574219 -27.238281 21.035156 -28.953125 16.957031 -28.953125 C 13.589844 -28.953125 9.867188 -26.410156 6.675781 -23.929688 C 6.617188 -25.644531 6.382812 -27.238281 5.671875 -28.953125 Z M 0 -28.953125 "/></g></g></g><g fill="#000000" fill-opacity="1"><g transform="translate(147.648639, 201.749987)"><g><path d="M 0 -28.953125 C 0.828125 -26.765625 1.0625 -24.757812 1.0625 -21.742188 L 1.0625 -7.207031 C 1.0625 -4.253906 0.828125 -2.246094 0 0 C 2.601562 0 5.199219 0 7.800781 0 C 6.914062 -2.246094 6.734375 -4.253906 6.734375 -7.207031 L 6.734375 -21.683594 C 9.15625 -23.632812 12.171875 -25.644531 14.121094 -25.761719 C 16.898438 -25.9375 18.789062 -24.578125 18.789062 -20.382812 L 18.789062 -7.207031 C 18.789062 -4.253906 18.613281 -2.246094 17.726562 0 C 20.324219 0 22.925781 0 25.523438 0 C 24.699219 -2.246094 24.460938 -4.253906 24.460938 -7.207031 C 24.460938 -11.460938 24.460938 -17.074219 24.460938 -21.566406 C 24.460938 -21.625 24.460938 -21.625 24.460938 -21.683594 C 26.882812 -23.632812 29.898438 -25.644531 31.847656 -25.761719 C 34.625 -25.9375 36.515625 -24.578125 36.515625 -20.382812 L 36.515625 -7.207031 C 36.515625 -4.253906 36.335938 -2.246094 35.511719 0 C 38.109375 0 40.710938 0 43.25 0 C 42.421875 -2.246094 42.246094 -4.253906 42.246094 -7.207031 C 42.246094 -11.460938 42.246094 -17.074219 42.246094 -21.566406 C 42.246094 -26.46875 39.527344 -28.953125 34.683594 -28.953125 C 31.316406 -28.953125 27.472656 -26.351562 24.285156 -23.753906 C 23.574219 -27.238281 21.035156 -28.953125 16.957031 -28.953125 C 13.589844 -28.953125 9.867188 -26.410156 6.675781 -23.929688 C 6.617188 -25.644531 6.382812 -27.238281 5.671875 -28.953125 Z M 0 -28.953125 "/></g></g></g><g fill="#ff914d" fill-opacity="1"><g transform="translate(195.905087, 201.749987)"><g><path d="M 26.351562 -7.207031 C 26.351562 -10.339844 26.351562 -17.015625 26.351562 -20.976562 C 26.351562 -28.125 20.855469 -28.953125 15.066406 -28.953125 C 9.808594 -28.953125 3.898438 -28.125 0 -27.238281 L 4.078125 -21.566406 C 7.445312 -24.34375 11.816406 -26.824219 16.308594 -26.882812 C 22.628906 -27 21.800781 -19.144531 15.953125 -17.667969 C 13.765625 -17.132812 11.402344 -17.605469 9.097656 -17.667969 C 3.722656 -17.785156 0 -14.359375 0 -8.863281 C 0 -3.074219 4.136719 0 8.804688 0 C 13.707031 0 19.085938 -3.425781 20.679688 -10.398438 L 20.679688 -7.800781 C 20.679688 -4.902344 20.738281 -2.539062 21.742188 0 L 27.414062 0 C 26.589844 -2.246094 26.351562 -4.253906 26.351562 -7.207031 Z M 10.988281 -3.132812 C 4.429688 -2.953125 3.132812 -13.886719 11.933594 -15.125 C 15.007812 -15.539062 19.144531 -15.65625 20.679688 -18.671875 C 20.148438 -13.351562 17.960938 -3.308594 10.988281 -3.132812 Z M 10.988281 -3.132812 "/></g></g></g><g fill="#000000" fill-opacity="1"><g transform="translate(228.272272, 201.749987)"><g><path d="M 31.257812 -32.203125 L 31.789062 -32.203125 L 31.789062 -40.710938 C 31.136719 -40.414062 30.546875 -40.886719 29.839844 -41.359375 C 26.410156 -43.839844 21.921875 -45.140625 16.898438 -45.140625 C 12.878906 -45.140625 8.449219 -44.136719 5.4375 -41.65625 C -0.175781 -36.988281 1.0625 -28.65625 7.265625 -25.171875 C 11.285156 -22.984375 16.011719 -22.039062 20.324219 -20.324219 C 24.226562 -18.730469 28.300781 -16.25 28.300781 -11.460938 C 28.300781 -6.203125 24.164062 -1.59375 17.605469 -1.59375 C 14.121094 -1.59375 10.988281 -2.421875 8.152344 -4.371094 C 2.363281 -8.390625 1.714844 -12.761719 1.714844 -19.378906 L 1.183594 -19.378906 L 0 -5.4375 C 0.828125 -5.671875 1.65625 -5.082031 2.128906 -4.667969 C 6.144531 -1.183594 12.703125 0.828125 17.371094 0.828125 C 21.742188 0.828125 26.410156 -0.414062 29.957031 -3.132812 C 37.046875 -8.566406 37.402344 -18.375 29.777344 -23.515625 C 24.816406 -26.882812 17.605469 -28.300781 12.527344 -30.488281 C 9.039062 -32.023438 8.273438 -35.570312 9.335938 -38.226562 C 10.8125 -41.65625 15.304688 -42.835938 18.140625 -42.777344 C 25.289062 -42.777344 30.960938 -39.46875 31.257812 -32.203125 Z M 31.257812 -32.203125 "/></g></g></g><g fill="#000000" fill-opacity="1"><g transform="translate(268.560886, 201.749987)"><g><path d="M 7.859375 -7.859375 L 7.859375 -12.40625 L 15.125 -21.625 L 23.8125 -5.257812 C 24.757812 -3.546875 25.40625 -1.890625 25.820312 0 L 35.214844 0 C 33.738281 -1.890625 31.609375 -5.257812 30.191406 -7.859375 L 19.734375 -27.472656 L 26.765625 -36.515625 C 28.832031 -39.113281 31.375 -42.070312 33.738281 -44.3125 L 25.996094 -44.3125 C 26.117188 -41.359375 25.523438 -38.640625 23.21875 -35.6875 L 7.859375 -16.1875 L 7.859375 -36.457031 C 7.859375 -39.46875 8.09375 -42.070312 8.921875 -44.3125 L 0 -44.3125 C 0.828125 -42.070312 1.0625 -39.46875 1.0625 -36.457031 C 1.0625 -31.609375 1.0625 -12.703125 1.0625 -7.859375 C 1.0625 -4.84375 0.828125 -2.246094 0 0 L 8.921875 0 C 8.09375 -2.246094 7.859375 -4.84375 7.859375 -7.859375 Z M 7.859375 -7.859375 "/></g></g></g><g fill="#000000" fill-opacity="1"><g transform="translate(308.672276, 201.749987)"><g><path d="M 1.0625 -36.457031 L 1.0625 -7.859375 C 1.0625 -4.84375 0.828125 -2.246094 0 0 L 8.921875 0 C 8.09375 -2.246094 7.859375 -4.84375 7.859375 -7.859375 C 7.859375 -12.703125 7.859375 -31.609375 7.859375 -36.457031 C 7.859375 -39.46875 8.09375 -42.070312 8.921875 -44.3125 L 0 -44.3125 C 0.828125 -42.070312 1.0625 -39.46875 1.0625 -36.457031 Z M 1.0625 -36.457031 "/></g></g></g><g fill="#000000" fill-opacity="1"><g transform="translate(322.672862, 201.749987)"><g><path d="M 21.328125 -7.859375 C 21.328125 -19.203125 21.328125 -30.605469 21.328125 -42.007812 L 27.472656 -42.007812 C 32.792969 -42.007812 34.800781 -38.820312 35.273438 -37.578125 L 35.804688 -37.578125 L 35.390625 -44.3125 L 0.414062 -44.3125 L 0 -37.578125 L 0.53125 -37.578125 C 1.003906 -38.820312 3.011719 -42.007812 8.273438 -42.007812 L 14.476562 -42.007812 C 14.476562 -30.605469 14.476562 -19.203125 14.476562 -7.859375 C 14.476562 -4.84375 14.296875 -2.246094 13.414062 0 L 22.335938 0 C 21.507812 -2.246094 21.328125 -4.84375 21.328125 -7.859375 Z M 21.328125 -7.859375 "/></g></g></g></svg>